<svg xmlns="http://www.w3.org/2000/svg" width="133" height="133" viewBox="0 0 133 133"><defs><style>.a{fill:#003d67;}.b{fill:#fff;}</style></defs><g transform="translate(-404 -2958)"><circle class="a" cx="66.5" cy="66.5" r="66.5" transform="translate(404 2958)"/><g transform="translate(426 2979)"><path class="b" d="M103.749,50.835a7.376,7.376,0,0,0-4.792,6.888,7.293,7.293,0,0,0,.846,3.359,5.879,5.879,0,0,0,0,11,7.293,7.293,0,0,0-.846,3.358,7.374,7.374,0,0,0,4.792,6.888,5.824,5.824,0,0,0-.363,1.969,5.865,5.865,0,0,0,7.987,5.508,5.89,5.89,0,0,0,11.2-2.555V45.913a5.89,5.89,0,0,0-11.2-2.555,5.851,5.851,0,0,0-7.623,7.477Zm5.542-4.922a2.955,2.955,0,0,1,2.952,2.952H115.2a5.848,5.848,0,0,0-1.361-3.724,2.945,2.945,0,0,1,5.79.772V87.247a2.945,2.945,0,0,1-5.79.772A5.847,5.847,0,0,0,115.2,84.3h-2.952a2.952,2.952,0,1,1-2.952-2.952V78.39a5.849,5.849,0,0,0-3.764,1.394,4.425,4.425,0,1,1,5.24-4.347h2.952a7.389,7.389,0,0,0-7.381-7.381,7.3,7.3,0,0,0-4.429,1.515v-.039a2.952,2.952,0,1,1,0-5.9v-.038a7.3,7.3,0,0,0,4.429,1.514,7.389,7.389,0,0,0,7.381-7.381h-2.952a4.429,4.429,0,1,1-5.24-4.346,5.848,5.848,0,0,0,3.764,1.393V51.818a2.952,2.952,0,0,1,0-5.9Zm0,0" transform="translate(-78.289 -32.625)"/><path class="b" d="M269.29,42.96a5.873,5.873,0,0,0-2.081.4A5.891,5.891,0,0,0,256,45.913V87.248A5.891,5.891,0,0,0,267.209,89.8,5.864,5.864,0,0,0,275.2,84.3a5.806,5.806,0,0,0-.363-1.969,7.374,7.374,0,0,0,4.792-6.888,7.292,7.292,0,0,0-.846-3.358,5.88,5.88,0,0,0,0-11,7.293,7.293,0,0,0,.846-3.359,7.376,7.376,0,0,0-4.792-6.888,5.8,5.8,0,0,0,.363-1.969,5.911,5.911,0,0,0-5.9-5.9Zm7.381,14.762a4.429,4.429,0,1,1-8.857,0h-2.953a7.389,7.389,0,0,0,7.381,7.381,7.3,7.3,0,0,0,4.429-1.514v.038a2.952,2.952,0,1,1,0,5.9v.039a7.3,7.3,0,0,0-4.429-1.515,7.39,7.39,0,0,0-7.381,7.381h2.953a4.429,4.429,0,1,1,5.241,4.347,5.852,5.852,0,0,0-3.765-1.394v2.952a2.952,2.952,0,1,1-2.953,2.952h-2.952a5.846,5.846,0,0,0,1.361,3.724,2.945,2.945,0,0,1-5.79-.772V45.913a2.945,2.945,0,0,1,5.79-.772,5.848,5.848,0,0,0-1.361,3.724h2.952a2.952,2.952,0,1,1,2.953,2.952V54.77a5.851,5.851,0,0,0,3.765-1.393A4.429,4.429,0,0,1,276.671,57.723Zm0,0" transform="translate(-208.764 -32.625)"/><path class="b" d="M121.208,9.209A33.672,33.672,0,0,0,95.793.071l.183,2.946A31,31,0,0,1,115.069,59.8a18.25,18.25,0,0,0-6.67,8.107H87.462a18.55,18.55,0,0,0-6.7-8.169A30.862,30.862,0,0,1,66.977,32.967l-2.951-.092A33.794,33.794,0,0,0,79.119,62.194a15.555,15.555,0,0,1,5.106,5.715H80.246v2.952H85.4a17.036,17.036,0,0,1,.631,2.952H83.2v2.952h2.952V81.2a1.476,1.476,0,0,0,1.476,1.476H89.1a8.857,8.857,0,1,0,17.715,0h1.476a1.475,1.475,0,0,0,1.476-1.476V76.767h2.952V73.814h-2.849a16.458,16.458,0,0,1,.593-2.952h5.208V67.909h-4.043a15.222,15.222,0,0,1,5.068-5.645,33.948,33.948,0,0,0,4.507-53.056ZM97.961,88.577a5.911,5.911,0,0,1-5.9-5.9h11.81A5.911,5.911,0,0,1,97.961,88.577Zm8.857-8.857H89.1V76.767h17.715Zm.105-5.9H88.986a20.1,20.1,0,0,0-.5-2.952h18.9a19.615,19.615,0,0,0-.459,2.952Zm0,0" transform="translate(-52.198 -0.001)"/><path class="b" d="M49.48,10.341a5.911,5.911,0,0,1,5.9,5.9,1.476,1.476,0,1,0,2.952,0,5.911,5.911,0,0,1,5.9-5.9,1.476,1.476,0,0,0,0-2.952,5.911,5.911,0,0,1-5.9-5.9,1.476,1.476,0,1,0-2.952,0,5.911,5.911,0,0,1-5.9,5.9,1.476,1.476,0,1,0,0,2.952Zm7.381-3.967a8.934,8.934,0,0,0,2.49,2.49,8.944,8.944,0,0,0-2.49,2.49,8.934,8.934,0,0,0-2.49-2.49A8.925,8.925,0,0,0,56.861,6.375Zm0,0" transform="translate(-39.146 -0.007)"/><path class="b" d="M16.243,90.342a1.476,1.476,0,0,0,0-2.952,5.911,5.911,0,0,1-5.9-5.9,1.476,1.476,0,1,0-2.952,0,5.911,5.911,0,0,1-5.9,5.9,1.476,1.476,0,0,0,0,2.952,5.911,5.911,0,0,1,5.9,5.9,1.476,1.476,0,0,0,2.952,0A5.911,5.911,0,0,1,16.243,90.342ZM8.861,91.356a8.935,8.935,0,0,0-2.49-2.49,8.944,8.944,0,0,0,2.49-2.49,8.953,8.953,0,0,0,2.49,2.49A8.944,8.944,0,0,0,8.861,91.356Zm0,0" transform="translate(-0.004 -65.244)"/></g></g></svg>