<svg xmlns="http://www.w3.org/2000/svg" width="133" height="133" viewBox="0 0 133 133"><defs><style>.a{fill:#003d67;}.b{fill:#fff;}</style></defs><g transform="translate(-1398 -3090)"><circle class="a" cx="66.5" cy="66.5" r="66.5" transform="translate(1398 3090)"/><g transform="translate(1425 3117)"><g transform="translate(0.001 12.808)"><path class="b" d="M64.931,136.355l-2.965-8.9a8.966,8.966,0,0,0-6.9-5.985l-8.56-1.557v-.663a12.89,12.89,0,0,0,3.818-3.39h2.586a3.847,3.847,0,0,0,3.842-3.842V96.65a16.65,16.65,0,0,0-33.3,0v8.966a5.132,5.132,0,0,0,4.084,5.017,12.832,12.832,0,0,0,6.162,8.62v.663l-8.561,1.557a8.964,8.964,0,0,0-6.9,5.985L17.722,129l-4.362-4.362a1.283,1.283,0,0,1,0-1.812l5.059-5.058-9.5-9.5-5.717,5.717a8.966,8.966,0,0,0,0,12.679l17.31,17.31a8.961,8.961,0,0,0,12.639.038l6.239-5.716-1.946-1.942ZM54.189,112.02a1.282,1.282,0,0,1-1.281,1.281H51.831a12.722,12.722,0,0,0,.835-2.668,5.074,5.074,0,0,0,1.523-.606Zm-1.281-4.2V103.41a2.539,2.539,0,0,1,0,4.411Zm-25.616,0a2.539,2.539,0,0,1,0-4.411Zm0-8.609v1.463a5.08,5.08,0,0,0-1.281.53V96.65a14.089,14.089,0,0,1,28.177,0V101.2a5.033,5.033,0,0,0-1.281-.53V99.212H51.627A14.092,14.092,0,0,1,41.6,95.058l-1.5-1.5-1.5,1.5a14.092,14.092,0,0,1-10.027,4.154Zm2.562,8.966v-6.453A16.605,16.605,0,0,0,40.1,97.173a16.6,16.6,0,0,0,10.246,4.552v6.453a10.169,10.169,0,0,1-1.386,5.123H40.1v2.562h6.755a10.23,10.23,0,0,1-17-7.685Zm14.089,12.217v.06L40.1,124.3l-3.842-3.842v-.06a12.8,12.8,0,0,0,7.685,0Zm-23.28,7.873a6.406,6.406,0,0,1,4.93-4.277l8.953-1.627L40.1,127.92l5.554-5.554,8.951,1.627a6.4,6.4,0,0,1,4.93,4.277l1.843,5.524H34.886L29.9,128.8l-5.543,5.014a1.308,1.308,0,0,1-1.811,0l-2.8-2.8ZM8.922,111.89l5.874,5.874L13.4,119.155l-5.874-5.874Zm22.459,30.275a6.405,6.405,0,0,1-9.056,0L5.014,124.855a6.405,6.405,0,0,1,0-9.056l.7-.7,5.874,5.874-.046.046a3.849,3.849,0,0,0,0,5.434l9.185,9.185a3.822,3.822,0,0,0,2.718,1.126,3.771,3.771,0,0,0,2.67-1.081l.1-.086,5.9,5.9Zm2.626-2.408-5.888-5.888,1.692-1.529,5.878,5.878Z" transform="translate(-0.58 -80)"/></g><g transform="translate(53.61)"><path class="b" d="M357.2,0H339.27a3.847,3.847,0,0,0-3.842,3.842V14.089a3.847,3.847,0,0,0,3.842,3.842h3.421l-1.324,7.724,12.36-7.724H357.2a3.847,3.847,0,0,0,3.842-3.842V3.842A3.847,3.847,0,0,0,357.2,0Zm1.281,14.089A1.283,1.283,0,0,1,357.2,15.37h-4.21l-8.134,5.083.872-5.083H339.27a1.283,1.283,0,0,1-1.281-1.281V3.842a1.283,1.283,0,0,1,1.281-1.281H357.2a1.283,1.283,0,0,1,1.281,1.281Z" transform="translate(-335.428)"/></g><g transform="translate(58.733 5.123)"><rect class="b" width="15.37" height="2.562"/></g><g transform="translate(58.733 10.246)"><rect class="b" width="10.246" height="2.562"/></g><g transform="translate(71.541 10.246)"><rect class="b" width="2.562" height="2.562"/></g><g transform="translate(0 3.842)"><path class="b" d="M40.093,24A35.839,35.839,0,0,0,5.2,51.723L2.769,47.677l-2.2,1.318,4.5,7.5,7.5-4.5-1.318-2.2L7.787,51.88A33.309,33.309,0,0,1,49.961,28.047l.758-2.446A35.839,35.839,0,0,0,40.093,24Z" transform="translate(-0.572 -24)"/></g><g transform="translate(65.395 23.857)"><path class="b" d="M422.245,153.518l-7.5-4.5-4.5,7.5,2.2,1.318,2.241-3.736a33.329,33.329,0,0,1-5.644,31.729l1.989,1.614a35.867,35.867,0,0,0,6.138-33.987l3.764,2.258Z" transform="translate(-409.036 -149.016)"/></g></g></g></svg>