<svg xmlns="http://www.w3.org/2000/svg" width="133" height="133" viewBox="0 0 133 133"><defs><style>.a{fill:#003d67;}.b{fill:#fff;}</style></defs><g transform="translate(-894 -3016)"><circle class="a" cx="66.5" cy="66.5" r="66.5" transform="translate(894 3016)"/><g transform="translate(915 3037)"><g transform="translate(0 0)"><path class="b" d="M100.372,61.348a1.8,1.8,0,1,0-.842,3.492,32.331,32.331,0,1,1-15.212,0,1.8,1.8,0,1,0-.842-3.492A36.1,36.1,0,0,0,63.828,73.884,35.536,35.536,0,0,0,56,96.27a35.924,35.924,0,0,0,71.848,0,35.536,35.536,0,0,0-7.827-22.386A36.1,36.1,0,0,0,100.372,61.348Z" transform="translate(-45.942 -50.287)"/><path class="b" d="M90.883,41.663l-2.1-3.921.35-4.847a9.168,9.168,0,0,0-3.319-8.116l-3.488-2.856-1.372-4.133a9.232,9.232,0,0,0-6.283-6.641l-4.306-1.3-3.3-3.812a9.192,9.192,0,0,0-7.9-3.194L54.7,3.287,50.3,1.083a9.164,9.164,0,0,0-8.643,0l-3.92,2.1-4.847-.351a9.167,9.167,0,0,0-8.116,3.319L21.922,9.641l-4.133,1.372A9.232,9.232,0,0,0,11.148,17.3L9.847,21.6,6.036,24.9a9.191,9.191,0,0,0-3.195,7.9l.445,4.469-2.2,4.393a9.164,9.164,0,0,0,0,8.643l2.1,3.92-.351,4.847a9.169,9.169,0,0,0,3.319,8.116L9.64,70.043l1.372,4.133A9.232,9.232,0,0,0,17.3,80.818l4.306,1.3,3.3,3.812a9.19,9.19,0,0,0,7.9,3.194l4.469-.445,4.393,2.2a9.164,9.164,0,0,0,8.643,0l3.921-2.1,4.847.351a9.171,9.171,0,0,0,8.116-3.319l2.856-3.488,4.134-1.372a9.232,9.232,0,0,0,6.641-6.283l1.3-4.306,3.812-3.3a9.191,9.191,0,0,0,3.195-7.9L88.679,54.7l2.2-4.393a9.165,9.165,0,0,0,0-8.643ZM87.7,48.629l-.023.044-2.448,4.879a1.8,1.8,0,0,0-.182.984l.5,4.984a5.6,5.6,0,0,1-1.958,4.819l-4.217,3.648a1.8,1.8,0,0,0-.544.839l-1.452,4.8a5.63,5.63,0,0,1-4.1,3.843c-.053.012-.106.027-.158.045l-4.7,1.56a1.8,1.8,0,0,0-.824.567l-3.186,3.892a5.591,5.591,0,0,1-4.972,2.021l-.071-.007-5.4-.39a1.8,1.8,0,0,0-.978.208l-4.376,2.345a5.577,5.577,0,0,1-5.273-.01l-.044-.023-4.879-2.448a1.8,1.8,0,0,0-.805-.191q-.089,0-.178.009l-4.984.5a5.6,5.6,0,0,1-4.819-1.958l-3.648-4.217a1.794,1.794,0,0,0-.839-.544l-4.8-1.451a5.63,5.63,0,0,1-3.843-4.1q-.019-.08-.045-.158l-1.56-4.7a1.794,1.794,0,0,0-.567-.824L8.428,64.407a5.591,5.591,0,0,1-2.021-4.972c0-.024,0-.047.007-.071l.39-5.4a1.8,1.8,0,0,0-.208-.978L4.25,48.61a5.578,5.578,0,0,1,.01-5.273l.023-.044L6.73,38.413a1.8,1.8,0,0,0,.182-.983l-.5-4.985a5.6,5.6,0,0,1,1.958-4.819l4.217-3.648a1.8,1.8,0,0,0,.544-.839l1.451-4.8a5.63,5.63,0,0,1,4.1-3.843q.08-.019.158-.045l4.7-1.561a1.794,1.794,0,0,0,.824-.567l3.187-3.892A5.592,5.592,0,0,1,32.53,6.407l.071.007L38,6.8a1.8,1.8,0,0,0,.978-.208l4.376-2.345a5.577,5.577,0,0,1,5.273.01l.044.023,4.879,2.448a1.794,1.794,0,0,0,.983.182l4.985-.5a5.6,5.6,0,0,1,4.819,1.958l3.648,4.217a1.8,1.8,0,0,0,.839.544l4.8,1.451a5.631,5.631,0,0,1,3.843,4.1q.019.08.045.158l1.561,4.7a1.8,1.8,0,0,0,.567.824l3.892,3.187a5.59,5.59,0,0,1,2.021,4.972c0,.024,0,.047-.006.071l-.39,5.4a1.8,1.8,0,0,0,.208.978l2.346,4.376a5.577,5.577,0,0,1-.01,5.273Z" transform="translate(0.001 0)"/><path class="b" d="M153.645,118.394a1.8,1.8,0,0,0-1.622-1.028h-9.491a1.8,1.8,0,0,0-1.8,1.8v27.188a1.8,1.8,0,0,0,1.8,1.8h9.491a1.8,1.8,0,0,0,1.655-1.1,34.038,34.038,0,0,1,4.248.988,25.825,25.825,0,0,0,6.863,1.243h10.369a7.2,7.2,0,0,0,6.948-4.546,6.446,6.446,0,0,0,.33-4.032,6.481,6.481,0,0,0,1.482-1.983,6.843,6.843,0,0,0,.489-4.851,6.725,6.725,0,0,0,1.771-6.319,5.41,5.41,0,0,0,1.034-8.606,5.616,5.616,0,0,0-3.9-1.534H168.7a4.878,4.878,0,0,1-.824-4.8,9.324,9.324,0,0,0-.26-8.571c-1.1-2.082-4.046-4.154-6.524-3.8a3.4,3.4,0,0,0-2.9,2.833,10.5,10.5,0,0,0-.149,1.529,12.694,12.694,0,0,1-1.4,5.7,15.138,15.138,0,0,0-1.349,4.661c-.349,2.064-.519,3.058-1.652,3.439Zm-9.316,2.564h5.9v23.6h-5.9Zm14.51-5.4a12.154,12.154,0,0,1,.992-3.6,16.28,16.28,0,0,0,1.8-7.174,9.023,9.023,0,0,1,.081-1v0a4.211,4.211,0,0,1,2.725,1.929,5.735,5.735,0,0,1,.121,5.518,8.289,8.289,0,0,0,.052,6.2,1.8,1.8,0,0,0,.249,3.573h18.456a2.04,2.04,0,0,1,1.419.543,1.83,1.83,0,0,1,.562,1.368,1.933,1.933,0,0,1-1.929,1.819l-4.623.1a1.8,1.8,0,0,0,.038,3.592h.04l3.85-.084a2.922,2.922,0,0,1-.073,1.812,2.4,2.4,0,0,1-2.349,1.771,1.8,1.8,0,0,0,0,3.592,6.355,6.355,0,0,0,.8-.05,3.517,3.517,0,0,1-.361,1.674,2.4,2.4,0,0,1-2.214,1.478,1.8,1.8,0,1,0,0,3.592q.279,0,.551-.025a3.389,3.389,0,0,1-.271,1.247,3.666,3.666,0,0,1-3.6,2.254H164.79a22.837,22.837,0,0,1-5.9-1.113,34.51,34.51,0,0,0-5.066-1.131V122.03C157.863,121.3,158.421,118.023,158.839,115.555Z" transform="translate(-115.457 -82.198)"/><path class="b" d="M247.8,59.593a1.8,1.8,0,0,0,0-3.592h0a1.8,1.8,0,0,0,0,3.592Z" transform="translate(-201.812 -45.942)"/></g></g></g></svg>