<svg xmlns="http://www.w3.org/2000/svg" width="30.141" height="30.245" viewBox="0 0 30.141 30.245"><defs><style>.a{fill:#9c9c9c;}</style></defs><path class="a" d="M810.836,570.039v-6.534a.918.918,0,0,1,.069-.466,1.357,1.357,0,0,1,.484-.225l.311-.069v7.293h1.244v-7.432h.8v7.432h1.244v-7.466h16.349a5.628,5.628,0,0,1,2.886.777,6.121,6.121,0,0,1,2.143,2.091,5.549,5.549,0,0,1,.847,2.834q.034.864.035,2.074-.035,2.559-.035,2.108h-9.264a.594.594,0,0,1-.484-.207,7.962,7.962,0,0,0-3.422-1.866,7.461,7.461,0,0,0-3.8.018,8.1,8.1,0,0,0-3.422,1.884.5.5,0,0,1-.346.173h-9.16l-.173-.035v-1.313q-.035.413-.035-1.591a15.366,15.366,0,0,1,.069-1.59,5.6,5.6,0,0,1,2.316-4.182l.138-.035v6.325h1.21Zm17.628,3.352h8.745v13.583a5.681,5.681,0,0,1-.795,2.938,5.839,5.839,0,0,1-2.143,2.126,5.778,5.778,0,0,1-2.938.778h-18.32a5.456,5.456,0,0,1-2.938-.761,6.1,6.1,0,0,1-2.16-2.142,5.586,5.586,0,0,1-.812-2.938V573.425h8.745a7.609,7.609,0,0,0-.968,6.982,7.857,7.857,0,0,0,6.2,5.064,7.8,7.8,0,0,0,3.3-.26,7.553,7.553,0,0,0,2.9-1.624,7.338,7.338,0,0,0,1.936-2.765,7.787,7.787,0,0,0,.588-3.594A8.373,8.373,0,0,0,828.464,573.391Zm-6.291,10.37a6.025,6.025,0,0,1-3.007-.778,5.718,5.718,0,0,1-2.178-2.142,5.955,5.955,0,0,1,0-5.944,5.979,5.979,0,0,1,2.178-2.179,5.8,5.8,0,0,1,2.99-.811,5.715,5.715,0,0,1,2.973.811,6.029,6.029,0,0,1,2.16,2.179,5.953,5.953,0,0,1,0,5.944,5.749,5.749,0,0,1-2.16,2.142A5.86,5.86,0,0,1,822.173,583.76Zm4.355-5.91a4.42,4.42,0,0,0-2.178-3.8,4.391,4.391,0,0,0-4.39,0,4.389,4.389,0,0,0-1.59,1.59,4.392,4.392,0,0,0,0,4.39,4.494,4.494,0,0,0,1.59,1.607,4.167,4.167,0,0,0,2.2.6,4.257,4.257,0,0,0,2.195-.589,4.38,4.38,0,0,0,1.59-1.59A4.292,4.292,0,0,0,826.529,577.851Zm7.95-10.2v-1.591a.956.956,0,0,0-.259-.708.912.912,0,0,0-.674-.259q-1.591-.034-3.215,0a.87.87,0,0,0-.692.276,1.064,1.064,0,0,0-.242.726v3.181a.954.954,0,0,0,.259.708.912.912,0,0,0,.674.26h3.18a.9.9,0,0,0,.968-.968Z" transform="translate(-807.103 -562.572)"/></svg>