<svg xmlns="http://www.w3.org/2000/svg" width="38.449" height="38.449" viewBox="0 0 38.449 38.449"><defs><style>.a{fill:#fff;}</style></defs><path class="a" d="M10.733,19.64A32.359,32.359,0,0,0,24.809,33.717l4.7-4.7a2.124,2.124,0,0,1,2.179-.513,24.366,24.366,0,0,0,7.626,1.218,2.142,2.142,0,0,1,2.136,2.136v7.455a2.142,2.142,0,0,1-2.136,2.136A36.31,36.31,0,0,1,3,5.136,2.142,2.142,0,0,1,5.136,3h7.476a2.142,2.142,0,0,1,2.136,2.136,24.267,24.267,0,0,0,1.218,7.626,2.144,2.144,0,0,1-.534,2.179Z" transform="translate(-3 -3)"/></svg>