<svg xmlns="http://www.w3.org/2000/svg" width="144.745" height="124.504" viewBox="0 0 144.745 124.504"><defs><style>.a{fill:#52bcf5;}.b{fill:#003d67;}</style></defs><g transform="translate(0 -8.949)"><path class="a" d="M99.09,53.882a1.671,1.671,0,0,0-.578-.7,39.2,39.2,0,0,0-60.047.123,1.964,1.964,0,0,0-.306.339c-.016.023-.025.048-.038.07a39.182,39.182,0,0,0,0,49.615c.015.023.024.049.038.071a1.968,1.968,0,0,0,.308.339,39.2,39.2,0,0,0,60.047.113,1.648,1.648,0,0,0,.565-.688,39.167,39.167,0,0,0,0-49.3ZM96.841,99.639a42.817,42.817,0,0,0-8.281-3.845,65.567,65.567,0,0,0,2.155-15.282H103.8A35.123,35.123,0,0,1,96.841,99.639ZM33.289,80.51H46.372a65.569,65.569,0,0,0,2.156,15.282,42.819,42.819,0,0,0-8.281,3.845A35.123,35.123,0,0,1,33.286,80.51Zm6.959-23.086a42.816,42.816,0,0,0,8.281,3.845,65.561,65.561,0,0,0-2.155,15.282H33.286a35.123,35.123,0,0,1,6.96-19.127Zm30.277,7.011a63.1,63.1,0,0,0,14.179-2A61,61,0,0,1,86.75,76.552H70.523Zm0-3.958V43.438c5.315,1.17,10.03,6.983,13,15.23a59.192,59.192,0,0,1-13,1.815ZM66.567,43.432V60.483a59.193,59.193,0,0,1-13-1.816c2.963-8.246,7.674-14.058,12.993-15.229Zm0,21V76.546H50.338a61,61,0,0,1,2.05-14.112,63.1,63.1,0,0,0,14.177,2ZM50.338,80.51H66.565V92.621a63.1,63.1,0,0,0-14.179,2,61,61,0,0,1-2.048-14.11ZM66.565,96.579v17.045c-5.315-1.17-10.03-6.983-13-15.23a59.186,59.186,0,0,1,13-1.815Zm3.958,17.046V96.579a59.186,59.186,0,0,1,13,1.816c-2.965,8.246-7.676,14.058-13,15.229Zm0-21V80.51H86.75A61,61,0,0,1,84.7,94.621a63.1,63.1,0,0,0-14.177-2ZM90.716,76.553A65.561,65.561,0,0,0,88.559,61.27a42.8,42.8,0,0,0,8.281-3.845,35.122,35.122,0,0,1,6.96,19.129Zm3.537-22.2A39.161,39.161,0,0,1,87.387,57.5,36.386,36.386,0,0,0,80.54,45.316a35.409,35.409,0,0,1,13.713,9.039Zm-37.7-9.041A36.387,36.387,0,0,0,49.7,57.5a39.173,39.173,0,0,1-6.867-3.143,35.409,35.409,0,0,1,13.715-9.04ZM42.835,102.707A39.175,39.175,0,0,1,49.7,99.564a36.386,36.386,0,0,0,6.847,12.182A35.412,35.412,0,0,1,42.835,102.707Zm37.7,9.04a36.387,36.387,0,0,0,6.847-12.183,39.168,39.168,0,0,1,6.867,3.143,35.412,35.412,0,0,1-13.713,9.041Z" transform="translate(3.829 3.964)"/><path class="b" d="M138.243,8.949H6.5a6.51,6.51,0,0,0-6.5,6.5v111.5a6.51,6.51,0,0,0,6.5,6.5H138.243a6.51,6.51,0,0,0,6.5-6.5V15.452a6.51,6.51,0,0,0-6.5-6.5ZM3.958,15.452A2.547,2.547,0,0,1,6.5,12.908H138.243a2.547,2.547,0,0,1,2.544,2.544V31.529H3.958ZM138.243,129.5H6.5a2.547,2.547,0,0,1-2.544-2.545V35.487H140.787v91.464a2.547,2.547,0,0,1-2.544,2.545Z"/><path class="a" d="M18.181,18.933H11.4a1.979,1.979,0,0,0,0,3.958h6.785a1.979,1.979,0,0,0,0-3.958Z" transform="translate(1.232 1.306)"/><path class="a" d="M35.034,18.933H28.249a1.979,1.979,0,1,0,0,3.958h6.785a1.979,1.979,0,0,0,0-3.958Z" transform="translate(3.437 1.306)"/><path class="a" d="M51.886,18.933H45.1a1.979,1.979,0,0,0,0,3.958h6.785a1.979,1.979,0,1,0,0-3.958Z" transform="translate(5.641 1.306)"/></g></svg>