<svg xmlns="http://www.w3.org/2000/svg" width="30.386" height="30.385" viewBox="0 0 30.386 30.385"><defs><style>.a{fill:#9c9c9c;}</style></defs><path class="a" d="M10674-1864.615v-21.946h6.752v21.946Zm23.631,0V-1876.2c0-2.69-1.023-4.745-3.377-4.745-1.792,0-2.688,1.454-3.158,2.65a4.659,4.659,0,0,0-.216,1.627v12.05h-6.75v-14.442c0-2.607-.09-4.786-.174-6.671h6.067l.3,2.91h.128a7.5,7.5,0,0,1,6.451-3.378c4.273,0,7.483,2.863,7.483,9.018v12.563Zm-23.631-26.92a3.322,3.322,0,0,1,3.376-3.463,3.276,3.276,0,0,1,3.376,3.375,3.2,3.2,0,0,1-3.382,3.336A3.2,3.2,0,0,1,10674-1891.537Z" transform="translate(-10674.001 1895)"/></svg>