<svg xmlns="http://www.w3.org/2000/svg" width="122.245" height="150.229" viewBox="0 0 122.245 150.229"><defs><style>.a{fill:#003d67;}.b{fill:#52bcf5;}</style></defs><g transform="translate(-7.177 -2)"><path class="a" d="M23,12h2v2H23Z" transform="translate(24.811)"/><path class="a" d="M27,12h2v2H27Z" transform="translate(31.084)"/><path class="a" d="M31,12h2v2H31Z" transform="translate(37.356)"/><path class="a" d="M37,6h2V8H37Z" transform="translate(46.764)"/><path class="a" d="M129.231,150.685a2.5,2.5,0,0,0-.543-2.729l-14.522-14.522-4.72-18.881,2.434-17.026a2.547,2.547,0,0,0-.015-.8L106.857,69.25a7.922,7.922,0,0,0-7.481-7.158,7.414,7.414,0,0,0-2.491.458V14.519A12.534,12.534,0,0,0,84.365,2H34.276A12.534,12.534,0,0,0,21.757,14.519V45.236a8.8,8.8,0,0,0-5.576.113,9.712,9.712,0,0,0-6.3,7.1,9.58,9.58,0,0,0,2.559,8.881l7.4,7.4a9.359,9.359,0,0,0-4.6,11.478A9.556,9.556,0,0,0,9.989,96.412l4.1,4.1a9.467,9.467,0,0,0-4.1,2.379,9.6,9.6,0,0,0,0,13.556L20,126.458a9.575,9.575,0,0,0,1.753,1.357v1.88a12.534,12.534,0,0,0,12.519,12.519h24l9.282,9.282a2.5,2.5,0,0,0,1.775.734h57.588a2.5,2.5,0,0,0,2.314-1.545ZM46.8,7.008H71.833v5.008H46.8ZM26.764,49.573V14.519a7.511,7.511,0,0,1,7.511-7.511h7.511v7.511a2.5,2.5,0,0,0,2.5,2.5H74.337a2.5,2.5,0,0,0,2.5-2.5V7.008h7.511a7.511,7.511,0,0,1,7.511,7.511V117.176H35.991a9.487,9.487,0,0,0-2.429-4.274l-4.111-4.111a9.4,9.4,0,0,0,6.928-9.141,9.515,9.515,0,0,0-.541-3.027,9.347,9.347,0,0,0,6.645-4.484H54.307a2.5,2.5,0,0,0,2.5-2.5V74.611a2.5,2.5,0,0,0-2.5-2.5H39.284a2.5,2.5,0,0,0-2.5,2.5v1.5l-5.734-5.731a9.652,9.652,0,0,0-4.282-2.424Zm15.023,31.7V77.115H51.8V87.13H43.886a9.54,9.54,0,0,0-2.1-5.851ZM15.976,57.785a4.6,4.6,0,0,1-1.209-4.257,4.725,4.725,0,0,1,3.142-3.473,3.553,3.553,0,0,1,1.217-.21,4.589,4.589,0,0,1,2.632.874V63.567Zm5.073,16.142a4.787,4.787,0,0,1,3.255-1.32,4.57,4.57,0,0,1,3.227,1.32l10,10a4.635,4.635,0,0,1,1.362,3.255,4.577,4.577,0,0,1-.308,1.622,4.332,4.332,0,0,1-1.037,1.612,4.6,4.6,0,0,1-6.069.383L21.058,80.4a4.544,4.544,0,0,1-1.345-3.235,4.62,4.62,0,0,1,1.335-3.237ZM13.537,92.871a4.579,4.579,0,0,1,6.094-6.818L30.019,96.412a4.579,4.579,0,1,1-6.476,6.476Zm10.015,30.046L13.537,112.9A4.579,4.579,0,0,1,20,106.427l10.015,10.015a4.579,4.579,0,1,1-6.476,6.476Zm10.724,14.289a7.511,7.511,0,0,1-7.511-7.511v-.438h.02a9.444,9.444,0,0,0,9.207-7.073H91.864V129.7a7.511,7.511,0,0,1-7.511,7.511Zm36.09,10.015-5.008-5.008H84.352A12.534,12.534,0,0,0,96.872,129.7V69.588a2.5,2.5,0,0,1,2.5-2.489c1.307,0,2.316,1.467,2.544,2.952L106.854,97.2l-2.446,17.121a2.536,2.536,0,0,0,.05.961l5.008,20.031a2.5,2.5,0,0,0,.659,1.164l10.749,10.749Z"/><path class="a" d="M26,52h4v2H26Z" transform="translate(30.833 90.229)"/><path class="b" d="M20.193,29.548h7.161a1.193,1.193,0,0,0,1.193-1.193V21.193A1.193,1.193,0,0,0,27.354,20H20.193A1.193,1.193,0,0,0,19,21.193v7.161A1.193,1.193,0,0,0,20.193,29.548Zm1.193-7.161h4.774v4.774H21.387Z" transform="translate(25.264 33.233)"/><path class="b" d="M29,32.25A1.75,1.75,0,0,0,30.75,34h10.5A1.75,1.75,0,0,0,43,32.25V21.75A1.75,1.75,0,0,0,41.25,20H30.75A1.75,1.75,0,0,0,29,21.75Zm3.5-8.75h7v7h-7Z" transform="translate(34.249 21.233)"/><path class="b" d="M38.594,30H30.371A1.371,1.371,0,0,0,29,31.371v8.223a1.371,1.371,0,0,0,1.371,1.371h8.223a1.371,1.371,0,0,0,1.371-1.371V31.371A1.371,1.371,0,0,0,38.594,30Zm-1.371,8.223H31.741V32.741h5.482Z" transform="translate(37.285 39.621)"/><path class="b" d="M23,44h2v2H23Z" transform="translate(24.811 65.339)"/><path class="b" d="M27,44h2v2H27Z" transform="translate(31.084 65.339)"/><path class="b" d="M31,44h2v2H31Z" transform="translate(37.356 65.339)"/></g></svg>