<svg xmlns="http://www.w3.org/2000/svg" width="149.485" height="149.485" viewBox="0 0 149.485 149.485"><defs><style>.a{fill:#003d67;}.b{fill:#52bcf5;}</style></defs><path class="a" d="M47.337,320H22.423A22.447,22.447,0,0,0,0,342.423v24.914a2.492,2.492,0,0,0,2.491,2.491H67.268a2.492,2.492,0,0,0,2.491-2.491V342.423A22.447,22.447,0,0,0,47.337,320Zm-.459,16.914-7.3-1.219,6.087-7.306Zm-4.864-11.932-7.135,8.563-7.135-8.563ZM24.1,328.392l6.087,7.3-7.3,1.217ZM4.983,342.423a17.455,17.455,0,0,1,14.53-17.176l-2.049,14.331a2.491,2.491,0,0,0,2.876,2.81l12.048-2.007v24.465H17.44V342.423H12.457v22.423H4.983Zm59.794,22.423H57.3V342.423H52.32v22.423H37.371V340.38l12.048,2.007a2.491,2.491,0,0,0,2.876-2.81l-2.049-14.331a17.453,17.453,0,0,1,14.53,17.176Zm0,0" transform="translate(0 -220.343)"/><path class="a" d="M85.371,197.9v-7.474a2.492,2.492,0,0,0,2.491-2.491,19.931,19.931,0,1,0-39.863,0,2.492,2.492,0,0,0,2.491,2.491V197.9a17.44,17.44,0,1,0,34.88,0Zm-17.44-24.914A14.974,14.974,0,0,1,82.59,185a16.766,16.766,0,0,1-7.6-5.922,2.492,2.492,0,0,0-1.826-1.1h-.249a2.492,2.492,0,0,0-1.762.73c-2.72,2.712-11.385,5.038-17.868,6.233a14.974,14.974,0,0,1,14.649-11.958Zm0,37.371A12.472,12.472,0,0,1,55.474,197.9l-.017-8.294A56.289,56.289,0,0,0,72.5,183.916a20.8,20.8,0,0,0,7.89,5.561V197.9a12.472,12.472,0,0,1-12.457,12.457Zm0,0" transform="translate(-33.051 -115.68)"/><path class="b" d="M289.828,240h-4.983A44.9,44.9,0,0,1,240,284.846v4.983A49.886,49.886,0,0,0,289.828,240Zm0,0" transform="translate(-165.257 -165.257)"/><path class="b" d="M149.955,80a49.937,49.937,0,0,0-40.725,21.11l4.069,2.875a44.956,44.956,0,0,1,36.656-19Zm0,0" transform="translate(-75.213 -55.086)"/><path class="b" d="M240,294.811v4.983A59.864,59.864,0,0,0,299.794,240h-4.983A54.873,54.873,0,0,1,240,294.811Zm0,0" transform="translate(-165.257 -165.257)"/><path class="b" d="M120.882,52.983V48A60.163,60.163,0,0,0,67.008,81.824l4.484,2.164a55.151,55.151,0,0,1,49.391-31.005Zm0,0" transform="translate(-46.14 -33.051)"/><path class="b" d="M288,24h4.983v4.983H288Zm0,0" transform="translate(-198.309 -16.526)"/><path class="b" d="M312,24h4.983v4.983H312Zm0,0" transform="translate(-214.835 -16.526)"/><path class="b" d="M336,24h4.983v4.983H336Zm0,0" transform="translate(-231.36 -16.526)"/><path class="a" d="M318.285,0H263.474A7.475,7.475,0,0,0,256,7.474V62.285a7.475,7.475,0,0,0,7.474,7.474h54.811a7.475,7.475,0,0,0,7.474-7.474V7.474A7.475,7.475,0,0,0,318.285,0ZM263.474,4.983h54.811a2.492,2.492,0,0,1,2.491,2.491v7.474H260.983V7.474A2.492,2.492,0,0,1,263.474,4.983Zm54.811,59.794H263.474a2.492,2.492,0,0,1-2.491-2.491V19.931h59.794V62.285A2.492,2.492,0,0,1,318.285,64.777Zm0,0" transform="translate(-176.275)"/><path class="b" d="M312.206,98.344l-7.474,7.474a2.493,2.493,0,0,0,0,3.523l7.474,7.474,3.523-3.523-5.713-5.713,5.713-5.713Zm0,0" transform="translate(-209.328 -67.717)"/><path class="b" d="M397.867,98.344l-3.523,3.523,5.713,5.713-5.713,5.713,3.523,3.523,7.474-7.474a2.493,2.493,0,0,0,0-3.523Zm0,0" transform="translate(-271.534 -67.717)"/><path class="b" d="M344.586,109.944l9.956-24.917,4.628,1.848-9.957,24.918Zm0,0" transform="translate(-237.273 -58.547)"/></svg>