<svg xmlns="http://www.w3.org/2000/svg" width="125.263" height="119" viewBox="0 0 125.263 119"><defs><style>.a{fill:#003d67;}.b{fill:#52bcf5;}</style></defs><g transform="translate(-2 -5)"><path class="a" d="M93.632,26.088h-27.2A10.311,10.311,0,0,0,60.228,24,10.439,10.439,0,0,0,49.789,34.439V49.053h-16.7A2.088,2.088,0,0,0,31,51.14v16.7a2.04,2.04,0,0,0,.459,1.294l7.892,9.875v22.234a2.088,2.088,0,0,0,2.088,2.088H79.018a2.088,2.088,0,0,0,2.088-2.088V79.011L89,69.136a2.04,2.04,0,0,0,.459-1.294V51.14a2.088,2.088,0,0,0-2.088-2.088h-16.7V40.7H93.632a2.088,2.088,0,0,0,2.088-2.088V28.175A2.088,2.088,0,0,0,93.632,26.088ZM53.965,34.439a6.263,6.263,0,0,1,12.526,0V53.228a6.263,6.263,0,0,1-12.526,0ZM39.351,72.331l-4.175-5.219V61.579h4.175ZM35.175,57.4V53.228H49.789a10.316,10.316,0,0,0,.877,4.175ZM76.93,99.158h-33.4V72.018h8.351v8.351a2.088,2.088,0,0,0,2.088,2.088H66.491a2.088,2.088,0,0,0,2.088-2.088V72.018H76.93ZM56.053,78.281V72.018H64.4v6.263ZM76.93,67.842h-33.4V61.579h10.5a10.251,10.251,0,0,0,12.4,0h10.5Zm8.351-.731-4.175,5.219V61.579h4.175Zm0-13.883V57.4H69.79a10.315,10.315,0,0,0,.877-4.175Zm6.263-16.7H70.667V34.439a10.315,10.315,0,0,0-.877-4.175H91.544Z" transform="translate(31.544 20.667)"/><path class="a" d="M54.193,5H16.614a6.282,6.282,0,0,0-6.263,6.263V27.568L2.438,47.318A6.343,6.343,0,0,0,2,49.635V71.118a10.455,10.455,0,0,0,2.088,6.263l1.378,1.837A10.472,10.472,0,0,1,7.386,87.34L4.088,121.7a2.134,2.134,0,0,0,.543,1.608A2.088,2.088,0,0,0,6.175,124H29.14a2.088,2.088,0,0,0,1.545-.689,2.113,2.113,0,0,0,.522-1.628L27.324,85.628a2.119,2.119,0,0,1,.313-1.545l1.232-1.837H54.193a6.282,6.282,0,0,0,6.263-6.263V11.263A6.282,6.282,0,0,0,54.193,5ZM23.483,67.026l1.127,1.106a8.351,8.351,0,0,1,2.443,5.908v.877a8.336,8.336,0,0,1-1.4,4.635l-1.482,2.213a6.054,6.054,0,0,0-.981,4.447l3.633,33.612H8.472L11.52,87.882A14.614,14.614,0,0,0,8.806,76.713L7.428,74.876a6.3,6.3,0,0,1-1.253-3.758V49.635a2.027,2.027,0,0,1,.146-.772L10.351,38.8V52.162a4.14,4.14,0,0,0,1.232,2.944l2.4,2.422a4.2,4.2,0,0,0,5.094.626l6.514-3.925a1.712,1.712,0,0,1,2.338,2.338l-4.76,7.912A2.117,2.117,0,0,0,23.483,67.026Zm4.405-1.482c-.1-.1-.188-.23-.292-.334l3.9-6.493a5.871,5.871,0,0,0-8.059-8.059l-.564.334V17.526H47.93V65.544ZM56.281,75.982a2.088,2.088,0,0,1-2.088,2.088H30.79a12.349,12.349,0,0,0,.438-3.152v-.877a12.564,12.564,0,0,0-.772-4.322H50.018a2.088,2.088,0,0,0,2.088-2.088V15.439a2.088,2.088,0,0,0-2.088-2.088H20.789A2.088,2.088,0,0,0,18.7,15.439V53.5l-1.775,1.065-2.4-2.4v-40.9a2.088,2.088,0,0,1,2.088-2.088H54.193a2.088,2.088,0,0,1,2.088,2.088Z"/><path class="b" d="M22.351,15A8.351,8.351,0,1,0,30.7,23.351,8.351,8.351,0,0,0,22.351,15Zm0,12.526a4.175,4.175,0,1,1,4.175-4.175A4.175,4.175,0,0,1,22.351,27.526Z" transform="translate(13.053 10.877)"/><path class="b" d="M44.223,19.223a4.175,4.175,0,1,0,5.9,0A4.175,4.175,0,0,0,44.223,19.223Z" transform="translate(44.596 14.141)"/><path class="b" d="M58.47,17.669a12.526,12.526,0,0,0-17.712,0l2.952,2.952a8.545,8.545,0,0,1,11.808,0Z" transform="translate(42.158 9.791)"/><path class="b" d="M67.454,16.11a20.9,20.9,0,0,0-29.525,0l2.952,2.952a16.723,16.723,0,0,1,23.62,0Z" transform="translate(39.081 5.444)"/><path class="b" d="M73.483,17.515l2.954-2.954a29.228,29.228,0,0,0-41.337,0l2.952,2.952a25.082,25.082,0,0,1,35.431,0Z" transform="translate(36.003 1.087)"/><rect class="b" width="4" height="4" transform="translate(90 72)"/><rect class="b" width="4" height="4" transform="translate(90 53)"/></g></svg>