<svg xmlns="http://www.w3.org/2000/svg" width="131.626" height="129.432" viewBox="0 0 131.626 129.432"><defs><style>.a{fill:#52bcf5;}.b{fill:#003d67;}</style></defs><g transform="translate(0 -0.5)"><path class="a" d="M15.872,6.5a9.872,9.872,0,1,0,9.872,9.872A9.884,9.884,0,0,0,15.872,6.5Zm0,15.356a5.484,5.484,0,1,1,5.484-5.484A5.491,5.491,0,0,1,15.872,21.856Z" transform="translate(7.163 7.163)"/><circle class="a" cx="2.5" cy="2.5" r="2.5" transform="translate(107 17.932)"/><ellipse class="a" cx="2" cy="2.5" rx="2" ry="2.5" transform="translate(99 17.932)"/><circle class="a" cx="2" cy="2" r="2" transform="translate(112 24.932)"/><circle class="a" cx="2" cy="2" r="2" transform="translate(103 24.932)"/><ellipse class="a" cx="2" cy="2.5" rx="2" ry="2.5" transform="translate(90 17.932)"/><ellipse class="a" cx="2.5" cy="2" rx="2.5" ry="2" transform="translate(94 24.932)"/><circle class="a" cx="2.5" cy="2.5" r="2.5" transform="translate(81 17.932)"/><circle class="a" cx="2" cy="2" r="2" transform="translate(86 24.932)"/><circle class="a" cx="2.5" cy="2.5" r="2.5" transform="translate(72 17.932)"/><circle class="a" cx="2" cy="2" r="2" transform="translate(77 24.932)"/><path class="b" d="M131.626,36.46V10.609A10.12,10.12,0,0,0,121.517.5H10.109A10.12,10.12,0,0,0,0,10.609V36.458a10.05,10.05,0,0,0,3.9,7.915A10.06,10.06,0,0,0,0,52.29V78.14a10.05,10.05,0,0,0,3.9,7.915A10.06,10.06,0,0,0,0,93.972v25.849a10.12,10.12,0,0,0,10.109,10.111H121.515a10.12,10.12,0,0,0,10.109-10.109V93.972a10.05,10.05,0,0,0-3.9-7.915,10.048,10.048,0,0,0,3.9-7.915V52.29a10.05,10.05,0,0,0-3.9-7.915A10.053,10.053,0,0,0,131.626,36.46Zm-4.388,57.512v25.849a5.728,5.728,0,0,1-5.721,5.721H10.109a5.725,5.725,0,0,1-5.721-5.719V93.972a5.728,5.728,0,0,1,5.721-5.721H121.515A5.728,5.728,0,0,1,127.238,93.972Zm0-41.682V78.14a5.728,5.728,0,0,1-5.721,5.721H10.109a5.725,5.725,0,0,1-5.721-5.719V52.29a5.728,5.728,0,0,1,5.721-5.721H121.515A5.728,5.728,0,0,1,127.238,52.29ZM10.109,42.182A5.728,5.728,0,0,1,4.388,36.46V10.609a5.728,5.728,0,0,1,5.721-5.721H121.515a5.728,5.728,0,0,1,5.724,5.721V36.458a5.728,5.728,0,0,1-5.721,5.721H10.109Z"/><path class="a" d="M15.872,45.244A9.872,9.872,0,1,0,6,35.372,9.884,9.884,0,0,0,15.872,45.244Zm0-15.356a5.484,5.484,0,1,1-5.484,5.484A5.491,5.491,0,0,1,15.872,29.888Z" transform="translate(7.163 29.844)"/><ellipse class="a" cx="2.5" cy="2" rx="2.5" ry="2" transform="translate(107 59.932)"/><circle class="a" cx="2" cy="2" r="2" transform="translate(99 59.932)"/><ellipse class="a" cx="2" cy="2.5" rx="2" ry="2.5" transform="translate(112 65.932)"/><ellipse class="a" cx="2" cy="2.5" rx="2" ry="2.5" transform="translate(103 65.932)"/><circle class="a" cx="2" cy="2" r="2" transform="translate(90 59.932)"/><circle class="a" cx="2.5" cy="2.5" r="2.5" transform="translate(94 65.932)"/><ellipse class="a" cx="2.5" cy="2" rx="2.5" ry="2" transform="translate(81 59.932)"/><ellipse class="a" cx="2" cy="2.5" rx="2" ry="2.5" transform="translate(86 65.932)"/><ellipse class="a" cx="2.5" cy="2" rx="2.5" ry="2" transform="translate(72 59.932)"/><ellipse class="a" cx="2" cy="2.5" rx="2" ry="2.5" transform="translate(77 65.932)"/><path class="a" d="M15.872,64.244A9.872,9.872,0,1,0,6,54.372,9.884,9.884,0,0,0,15.872,64.244Zm0-15.356a5.484,5.484,0,1,1-5.484,5.484A5.491,5.491,0,0,1,15.872,48.888Z" transform="translate(7.163 52.526)"/><circle class="a" cx="2.5" cy="2.5" r="2.5" transform="translate(107 100.932)"/><ellipse class="a" cx="2" cy="2.5" rx="2" ry="2.5" transform="translate(99 100.932)"/><circle class="a" cx="2" cy="2" r="2" transform="translate(112 107.932)"/><circle class="a" cx="2" cy="2" r="2" transform="translate(103 107.932)"/><ellipse class="a" cx="2" cy="2.5" rx="2" ry="2.5" transform="translate(90 100.932)"/><ellipse class="a" cx="2.5" cy="2" rx="2.5" ry="2" transform="translate(94 107.932)"/><circle class="a" cx="2.5" cy="2.5" r="2.5" transform="translate(81 100.932)"/><circle class="a" cx="2" cy="2" r="2" transform="translate(86 107.932)"/><circle class="a" cx="2.5" cy="2.5" r="2.5" transform="translate(72 100.932)"/><circle class="a" cx="2" cy="2" r="2" transform="translate(77 107.932)"/></g></svg>